# xmcd
#
# Track frame offsets:
#	150
#	21203
#	37974
#	59215
#	77655
#	96908
#	116212
#	130668
#	154738
#	179525
#
# Disc length: 2644 seconds
#
# Revision: 0
# Processed by: cddbd v1.5.1PL2 Copyright (c) Steve Scherf et al.
# Submitted via: audiograbber 1.83.01
#
DISCID=850a520a
DTITLE=Bolt Thrower - Those Once Loyal (digipak)
DYEAR=2005
DGENRE=Metal
TTITLE0=At First Light
TTITLE1=Entrenched
TTITLE2=The Killchain
TTITLE3=Granite Wall
TTITLE4=Those Once Loyal
TTITLE5=Anti-Tank (Dead Armour)
TTITLE6=Last Stand Of Humanity
TTITLE7=Salvo
TTITLE8=When Cannons Fade
TTITLE9=A Symbol Of Eight (bonus)
EXTD=
EXTT0=
EXTT1=
EXTT2=
EXTT3=
EXTT4=
EXTT5=
EXTT6=
EXTT7=
EXTT8=
EXTT9=
PLAYORDER=
